<svg width="65" height="62" viewBox="0 0 65 62" fill="none" xmlns="http://www.w3.org/2000/svg">
<path d="M10.3731 0.983997C11.6211 0.983997 12.9651 1.112 14.4051 1.368C15.8771 1.592 16.7411 1.72 16.9971 1.752L16.9011 5.352C14.0851 4.84 11.9091 4.584 10.3731 4.584C8.19706 4.584 6.62906 5.032 5.66906 5.928C4.70906 6.824 4.22906 8.312 4.22906 10.392V24.12C4.22906 26.2 4.69306 27.688 5.62106 28.584C6.58106 29.448 8.16506 29.88 10.3731 29.88C11.9091 29.88 14.0851 29.624 16.9011 29.112L16.9971 32.808C16.7411 32.84 15.8771 32.968 14.4051 33.192C12.9651 33.448 11.6211 33.576 10.3731 33.576C6.69306 33.576 4.06906 32.792 2.50106 31.224C0.933063 29.656 0.149063 27.208 0.149063 23.88V10.68C0.149063 7.352 0.933063 4.904 2.50106 3.336C4.06906 1.768 6.69306 0.983997 10.3731 0.983997ZM31.5212 0.983997C35.2972 0.983997 38.0972 1.752 39.9212 3.288C41.7772 4.792 42.7052 6.952 42.7052 9.768V10.92C42.7052 13.928 41.8092 16.248 40.0172 17.88C38.2252 19.512 35.5212 20.328 31.9052 20.328C30.4652 20.328 28.9292 20.2 27.2972 19.944V33H23.2172V1.224C25.9372 1.064 28.7052 0.983997 31.5212 0.983997ZM31.4252 4.44C30.0172 4.44 28.6412 4.472 27.2972 4.536V16.44C29.2172 16.696 30.6892 16.824 31.7132 16.824C36.3212 16.824 38.6252 14.792 38.6252 10.728V9.912C38.6252 8.088 38.0492 6.728 36.8972 5.832C35.7452 4.904 33.9212 4.44 31.4252 4.44ZM64.2928 1.56V5.256H51.8128V15.192H61.2208V18.84H51.8128V33H47.7328V1.56H64.2928Z" fill="#219653"/>
<path d="M5.11328 46.5322L7.36914 39.0469H9.65234L6.18652 49H4.04688L0.594727 39.0469H2.87109L5.11328 46.5322ZM14.4375 49C14.3464 48.8223 14.2803 48.6012 14.2393 48.3369C13.7607 48.8701 13.1387 49.1367 12.373 49.1367C11.6484 49.1367 11.0469 48.9271 10.5684 48.5078C10.0944 48.0885 9.85742 47.5599 9.85742 46.9219C9.85742 46.138 10.1468 45.5365 10.7256 45.1172C11.3089 44.6979 12.1497 44.486 13.248 44.4814H14.1572V44.0576C14.1572 43.7158 14.0684 43.4424 13.8906 43.2373C13.7174 43.0322 13.4417 42.9297 13.0635 42.9297C12.7308 42.9297 12.4688 43.0094 12.2773 43.1689C12.0905 43.3285 11.9971 43.5472 11.9971 43.8252H10.0215C10.0215 43.3968 10.1536 43.0003 10.418 42.6357C10.6823 42.2712 11.056 41.9863 11.5391 41.7812C12.0221 41.5716 12.5645 41.4668 13.166 41.4668C14.0775 41.4668 14.7998 41.6969 15.333 42.1572C15.8708 42.613 16.1396 43.2555 16.1396 44.085V47.291C16.1442 47.9928 16.2422 48.5238 16.4336 48.8838V49H14.4375ZM12.8037 47.626C13.0954 47.626 13.3643 47.5622 13.6104 47.4346C13.8564 47.3024 14.0387 47.127 14.1572 46.9082V45.6367H13.4189C12.43 45.6367 11.9036 45.9785 11.8398 46.6621L11.833 46.7783C11.833 47.0244 11.9196 47.2272 12.0928 47.3867C12.266 47.5462 12.5029 47.626 12.8037 47.626ZM19.7422 49H17.7598V38.5H19.7422V49ZM23.4609 49H21.4785V41.6035H23.4609V49ZM21.3623 39.6895C21.3623 39.3932 21.4603 39.1494 21.6562 38.958C21.8568 38.7666 22.1279 38.6709 22.4697 38.6709C22.807 38.6709 23.0758 38.7666 23.2764 38.958C23.4769 39.1494 23.5771 39.3932 23.5771 39.6895C23.5771 39.9902 23.4746 40.2363 23.2695 40.4277C23.069 40.6191 22.8024 40.7148 22.4697 40.7148C22.137 40.7148 21.8682 40.6191 21.6631 40.4277C21.4626 40.2363 21.3623 39.9902 21.3623 39.6895ZM24.7871 45.2471C24.7871 44.0941 25.0446 43.1758 25.5596 42.4922C26.0791 41.8086 26.7878 41.4668 27.6855 41.4668C28.4056 41.4668 29.0003 41.7357 29.4697 42.2734V38.5H31.4521V49H29.668L29.5723 48.2139C29.0801 48.8291 28.4466 49.1367 27.6719 49.1367C26.8014 49.1367 26.1019 48.7949 25.5732 48.1113C25.0492 47.4232 24.7871 46.4684 24.7871 45.2471ZM26.7627 45.3906C26.7627 46.0833 26.8835 46.6143 27.125 46.9834C27.3665 47.3525 27.7174 47.5371 28.1777 47.5371C28.7884 47.5371 29.2191 47.2796 29.4697 46.7646V43.8457C29.2236 43.3307 28.7975 43.0732 28.1914 43.0732C27.2389 43.0732 26.7627 43.8457 26.7627 45.3906ZM37.2695 49C37.1784 48.8223 37.1123 48.6012 37.0713 48.3369C36.5928 48.8701 35.9707 49.1367 35.2051 49.1367C34.4805 49.1367 33.8789 48.9271 33.4004 48.5078C32.9264 48.0885 32.6895 47.5599 32.6895 46.9219C32.6895 46.138 32.9788 45.5365 33.5576 45.1172C34.141 44.6979 34.9818 44.486 36.0801 44.4814H36.9893V44.0576C36.9893 43.7158 36.9004 43.4424 36.7227 43.2373C36.5495 43.0322 36.2738 42.9297 35.8955 42.9297C35.5628 42.9297 35.3008 43.0094 35.1094 43.1689C34.9225 43.3285 34.8291 43.5472 34.8291 43.8252H32.8535C32.8535 43.3968 32.9857 43.0003 33.25 42.6357C33.5143 42.2712 33.888 41.9863 34.3711 41.7812C34.8542 41.5716 35.3965 41.4668 35.998 41.4668C36.9095 41.4668 37.6318 41.6969 38.165 42.1572C38.7028 42.613 38.9717 43.2555 38.9717 44.085V47.291C38.9762 47.9928 39.0742 48.5238 39.2656 48.8838V49H37.2695ZM35.6357 47.626C35.9274 47.626 36.1963 47.5622 36.4424 47.4346C36.6885 47.3024 36.8708 47.127 36.9893 46.9082V45.6367H36.251C35.262 45.6367 34.7357 45.9785 34.6719 46.6621L34.665 46.7783C34.665 47.0244 34.7516 47.2272 34.9248 47.3867C35.098 47.5462 35.335 47.626 35.6357 47.626ZM43.5654 47.5439C43.93 47.5439 44.2262 47.4437 44.4541 47.2432C44.682 47.0426 44.8005 46.776 44.8096 46.4434H46.6621C46.6576 46.9447 46.5208 47.4049 46.252 47.8242C45.9831 48.2389 45.6139 48.5625 45.1445 48.7949C44.6797 49.0228 44.1647 49.1367 43.5996 49.1367C42.5423 49.1367 41.7083 48.8018 41.0977 48.1318C40.487 47.4574 40.1816 46.5277 40.1816 45.3428V45.2129C40.1816 44.0736 40.4847 43.1644 41.0908 42.4854C41.6969 41.8063 42.5286 41.4668 43.5859 41.4668C44.5111 41.4668 45.2516 41.7311 45.8076 42.2598C46.3682 42.7839 46.653 43.4834 46.6621 44.3584H44.8096C44.8005 43.9756 44.682 43.6657 44.4541 43.4287C44.2262 43.1872 43.9255 43.0664 43.5518 43.0664C43.0915 43.0664 42.7428 43.235 42.5059 43.5723C42.2734 43.9049 42.1572 44.4473 42.1572 45.1992V45.4043C42.1572 46.1654 42.2734 46.7122 42.5059 47.0449C42.7383 47.3776 43.0915 47.5439 43.5654 47.5439ZM44.2832 48.959L44.208 49.3555C44.8916 49.4785 45.2334 49.8727 45.2334 50.5381C45.2334 51.0394 45.0238 51.4359 44.6045 51.7275C44.1898 52.0192 43.6042 52.165 42.8477 52.165L42.7998 51.0234C43.3102 51.0234 43.5654 50.8389 43.5654 50.4697C43.5654 50.2783 43.488 50.1462 43.333 50.0732C43.1826 50.0049 42.9365 49.9593 42.5947 49.9365L42.8066 48.959H44.2832ZM52.0762 49C51.985 48.8223 51.9189 48.6012 51.8779 48.3369C51.3994 48.8701 50.7773 49.1367 50.0117 49.1367C49.2871 49.1367 48.6855 48.9271 48.207 48.5078C47.7331 48.0885 47.4961 47.5599 47.4961 46.9219C47.4961 46.138 47.7855 45.5365 48.3643 45.1172C48.9476 44.6979 49.7884 44.486 50.8867 44.4814H51.7959V44.0576C51.7959 43.7158 51.707 43.4424 51.5293 43.2373C51.3561 43.0322 51.0804 42.9297 50.7021 42.9297C50.3695 42.9297 50.1074 43.0094 49.916 43.1689C49.7292 43.3285 49.6357 43.5472 49.6357 43.8252H47.6602C47.6602 43.3968 47.7923 43.0003 48.0566 42.6357C48.321 42.2712 48.6947 41.9863 49.1777 41.7812C49.6608 41.5716 50.2031 41.4668 50.8047 41.4668C51.7161 41.4668 52.4385 41.6969 52.9717 42.1572C53.5094 42.613 53.7783 43.2555 53.7783 44.085V47.291C53.7829 47.9928 53.8809 48.5238 54.0723 48.8838V49H52.0762ZM50.4424 47.626C50.734 47.626 51.0029 47.5622 51.249 47.4346C51.4951 47.3024 51.6774 47.127 51.7959 46.9082V45.6367H51.0576C50.0687 45.6367 49.5423 45.9785 49.4785 46.6621L49.4717 46.7783C49.4717 47.0244 49.5583 47.2272 49.7314 47.3867C49.9046 47.5462 50.1416 47.626 50.4424 47.626ZM53.3682 38.5889C53.3682 39.1038 53.2178 39.5368 52.917 39.8877C52.6162 40.234 52.2493 40.4072 51.8164 40.4072C51.6432 40.4072 51.4883 40.389 51.3516 40.3525C51.2194 40.3115 51.0348 40.2272 50.7979 40.0996C50.5609 39.972 50.39 39.8945 50.2852 39.8672C50.1803 39.8353 50.0664 39.8193 49.9434 39.8193C49.7839 39.8193 49.6471 39.8763 49.5332 39.9902C49.4238 40.1042 49.3691 40.266 49.3691 40.4756L48.2207 40.4072C48.2207 39.9014 48.3688 39.4707 48.665 39.1152C48.9658 38.7598 49.3327 38.582 49.7656 38.582C49.9023 38.582 50.0299 38.6003 50.1484 38.6367C50.2715 38.6686 50.4697 38.7507 50.7432 38.8828C51.0166 39.015 51.2057 39.0947 51.3105 39.1221C51.4154 39.1494 51.5247 39.1631 51.6387 39.1631C51.7982 39.1631 51.9349 39.1084 52.0488 38.999C52.1673 38.8851 52.2266 38.7233 52.2266 38.5137L53.3682 38.5889ZM54.9883 45.2334C54.9883 44.4997 55.1296 43.8457 55.4121 43.2715C55.6947 42.6973 56.1003 42.2529 56.6289 41.9385C57.1621 41.624 57.7796 41.4668 58.4814 41.4668C59.4795 41.4668 60.293 41.7721 60.9219 42.3828C61.5553 42.9935 61.9085 43.8229 61.9814 44.8711L61.9951 45.377C61.9951 46.5117 61.6784 47.4232 61.0449 48.1113C60.4115 48.7949 59.5615 49.1367 58.4951 49.1367C57.4287 49.1367 56.5765 48.7949 55.9385 48.1113C55.305 47.4277 54.9883 46.498 54.9883 45.3223V45.2334ZM56.9639 45.377C56.9639 46.0788 57.096 46.6165 57.3604 46.9902C57.6247 47.3594 58.0029 47.5439 58.4951 47.5439C58.9736 47.5439 59.3473 47.3617 59.6162 46.9971C59.8851 46.6279 60.0195 46.04 60.0195 45.2334C60.0195 44.5452 59.8851 44.012 59.6162 43.6338C59.3473 43.2555 58.9691 43.0664 58.4814 43.0664C57.9984 43.0664 57.6247 43.2555 57.3604 43.6338C57.096 44.0075 56.9639 44.5885 56.9639 45.377ZM13.0957 53.6016H14.4141V58.0312C14.4141 58.4385 14.3232 58.7988 14.1416 59.1123C13.9629 59.4229 13.7095 59.6631 13.3813 59.833C13.0532 60.0029 12.6826 60.0879 12.2695 60.0879C11.5928 60.0879 11.0654 59.9165 10.6875 59.5737C10.3096 59.228 10.1206 58.7402 10.1206 58.1104H11.4478C11.4478 58.4238 11.5137 58.6553 11.6455 58.8047C11.7773 58.9541 11.9854 59.0288 12.2695 59.0288C12.5215 59.0288 12.7222 58.9424 12.8716 58.7695C13.021 58.5967 13.0957 58.3506 13.0957 58.0312V53.6016ZM18.2153 60C18.1567 59.8857 18.1143 59.7437 18.0879 59.5737C17.7803 59.9165 17.3804 60.0879 16.8882 60.0879C16.4224 60.0879 16.0356 59.9531 15.728 59.6836C15.4233 59.4141 15.271 59.0742 15.271 58.6641C15.271 58.1602 15.457 57.7734 15.8291 57.5039C16.2041 57.2344 16.7446 57.0981 17.4507 57.0952H18.0352V56.8228C18.0352 56.603 17.978 56.4272 17.8638 56.2954C17.7524 56.1636 17.5752 56.0977 17.332 56.0977C17.1182 56.0977 16.9497 56.1489 16.8267 56.2515C16.7065 56.354 16.6465 56.4946 16.6465 56.6733H15.3765C15.3765 56.3979 15.4614 56.1431 15.6313 55.9087C15.8013 55.6743 16.0415 55.4912 16.3521 55.3594C16.6626 55.2246 17.0112 55.1572 17.3979 55.1572C17.9839 55.1572 18.4482 55.3052 18.791 55.6011C19.1367 55.894 19.3096 56.3071 19.3096 56.8403V58.9014C19.3125 59.3525 19.3755 59.6938 19.4985 59.9253V60H18.2153ZM17.165 59.1167C17.3525 59.1167 17.5254 59.0757 17.6836 58.9937C17.8418 58.9087 17.959 58.7959 18.0352 58.6553V57.8379H17.5605C16.9248 57.8379 16.5864 58.0576 16.5454 58.4971L16.541 58.5718C16.541 58.73 16.5967 58.8604 16.708 58.9629C16.8193 59.0654 16.9717 59.1167 17.165 59.1167ZM21.9946 58.4487L22.8779 55.2451H24.2051L22.6011 60H21.3882L19.7842 55.2451H21.1113L21.9946 58.4487ZM27.4526 60C27.394 59.8857 27.3516 59.7437 27.3252 59.5737C27.0176 59.9165 26.6177 60.0879 26.1255 60.0879C25.6597 60.0879 25.2729 59.9531 24.9653 59.6836C24.6606 59.4141 24.5083 59.0742 24.5083 58.6641C24.5083 58.1602 24.6943 57.7734 25.0664 57.5039C25.4414 57.2344 25.9819 57.0981 26.688 57.0952H27.2725V56.8228C27.2725 56.603 27.2153 56.4272 27.1011 56.2954C26.9897 56.1636 26.8125 56.0977 26.5693 56.0977C26.3555 56.0977 26.187 56.1489 26.064 56.2515C25.9438 56.354 25.8838 56.4946 25.8838 56.6733H24.6138C24.6138 56.3979 24.6987 56.1431 24.8687 55.9087C25.0386 55.6743 25.2788 55.4912 25.5894 55.3594C25.8999 55.2246 26.2485 55.1572 26.6353 55.1572C27.2212 55.1572 27.6855 55.3052 28.0283 55.6011C28.374 55.894 28.5469 56.3071 28.5469 56.8403V58.9014C28.5498 59.3525 28.6128 59.6938 28.7358 59.9253V60H27.4526ZM26.4023 59.1167C26.5898 59.1167 26.7627 59.0757 26.9209 58.9937C27.0791 58.9087 27.1963 58.7959 27.2725 58.6553V57.8379H26.7979C26.1621 57.8379 25.8237 58.0576 25.7827 58.4971L25.7783 58.5718C25.7783 58.73 25.834 58.8604 25.9453 58.9629C26.0566 59.0654 26.209 59.1167 26.4023 59.1167ZM32.9238 58.3213C32.9238 58.0723 32.8359 57.8818 32.6602 57.75C32.4844 57.6152 32.168 57.4746 31.7109 57.3281C31.2539 57.1787 30.8921 57.0322 30.6255 56.8887C29.8989 56.4961 29.5356 55.9673 29.5356 55.3022C29.5356 54.9565 29.6323 54.6489 29.8257 54.3794C30.022 54.1069 30.3018 53.8945 30.665 53.7422C31.0312 53.5898 31.4414 53.5137 31.8955 53.5137C32.3525 53.5137 32.7598 53.5972 33.1172 53.7642C33.4746 53.9282 33.7515 54.1611 33.9478 54.4629C34.147 54.7646 34.2466 55.1074 34.2466 55.4912H32.9282C32.9282 55.1982 32.8359 54.9712 32.6514 54.8101C32.4668 54.646 32.2075 54.564 31.8735 54.564C31.5513 54.564 31.3008 54.6328 31.1221 54.7705C30.9434 54.9053 30.854 55.084 30.854 55.3066C30.854 55.5146 30.958 55.689 31.166 55.8296C31.377 55.9702 31.686 56.1021 32.0933 56.2251C32.8433 56.4507 33.3896 56.7305 33.7324 57.0645C34.0752 57.3984 34.2466 57.8145 34.2466 58.3125C34.2466 58.8662 34.0371 59.3013 33.6182 59.6177C33.1992 59.9312 32.6353 60.0879 31.9263 60.0879C31.4341 60.0879 30.9858 59.9985 30.5815 59.8198C30.1772 59.6382 29.8682 59.3906 29.6543 59.0771C29.4434 58.7637 29.3379 58.4004 29.3379 57.9873H30.6606C30.6606 58.6934 31.0825 59.0464 31.9263 59.0464C32.2397 59.0464 32.4844 58.9834 32.6602 58.8574C32.8359 58.7285 32.9238 58.5498 32.9238 58.3213ZM37.0371 59.064C37.2715 59.064 37.4619 58.9995 37.6084 58.8706C37.7549 58.7417 37.8311 58.5703 37.8369 58.3564H39.0278C39.0249 58.6787 38.937 58.9746 38.7642 59.2441C38.5913 59.5107 38.354 59.7188 38.0522 59.8682C37.7534 60.0146 37.4224 60.0879 37.0591 60.0879C36.3794 60.0879 35.8433 59.8726 35.4507 59.4419C35.0581 59.0083 34.8618 58.4106 34.8618 57.6489V57.5654C34.8618 56.833 35.0566 56.2485 35.4463 55.812C35.8359 55.3755 36.3706 55.1572 37.0503 55.1572C37.645 55.1572 38.1211 55.3271 38.4785 55.667C38.8389 56.0039 39.022 56.4536 39.0278 57.0161H37.8369C37.8311 56.77 37.7549 56.5708 37.6084 56.4185C37.4619 56.2632 37.2686 56.1855 37.0283 56.1855C36.7324 56.1855 36.5083 56.2939 36.356 56.5107C36.2065 56.7246 36.1318 57.0732 36.1318 57.5566V57.6885C36.1318 58.1777 36.2065 58.5293 36.356 58.7432C36.5054 58.957 36.7324 59.064 37.0371 59.064ZM42.4248 56.436C42.252 56.4126 42.0996 56.4009 41.9678 56.4009C41.4873 56.4009 41.1724 56.5635 41.0229 56.8887V60H39.7529V55.2451H40.9526L40.9878 55.812C41.2427 55.3755 41.5957 55.1572 42.0469 55.1572C42.1875 55.1572 42.3193 55.1763 42.4424 55.2144L42.4248 56.436ZM44.3804 60H43.106V55.2451H44.3804V60ZM43.0312 54.0146C43.0312 53.8242 43.0942 53.6675 43.2202 53.5444C43.3491 53.4214 43.5234 53.3599 43.7432 53.3599C43.96 53.3599 44.1328 53.4214 44.2617 53.5444C44.3906 53.6675 44.4551 53.8242 44.4551 54.0146C44.4551 54.208 44.3892 54.3662 44.2573 54.4893C44.1284 54.6123 43.957 54.6738 43.7432 54.6738C43.5293 54.6738 43.3564 54.6123 43.2246 54.4893C43.0957 54.3662 43.0312 54.208 43.0312 54.0146ZM49.7109 57.6665C49.7109 58.3989 49.5439 58.9863 49.21 59.4287C48.8789 59.8682 48.4307 60.0879 47.8652 60.0879C47.3848 60.0879 46.9966 59.9209 46.7007 59.5869V61.8281H45.4307V55.2451H46.6084L46.6523 55.7109C46.96 55.3418 47.3613 55.1572 47.8564 55.1572C48.4424 55.1572 48.8979 55.374 49.2231 55.8076C49.5483 56.2412 49.7109 56.8389 49.7109 57.6006V57.6665ZM48.4409 57.5742C48.4409 57.1318 48.3618 56.7905 48.2036 56.5503C48.0483 56.3101 47.8213 56.1899 47.5225 56.1899C47.124 56.1899 46.8501 56.3423 46.7007 56.647V58.5938C46.856 58.9072 47.1328 59.064 47.5312 59.064C48.1377 59.064 48.4409 58.5674 48.4409 57.5742ZM52.0225 54.0762V55.2451H52.8354V56.1768H52.0225V58.5498C52.0225 58.7256 52.0562 58.8516 52.1235 58.9277C52.1909 59.0039 52.3198 59.042 52.5103 59.042C52.6509 59.042 52.7754 59.0317 52.8838 59.0112V59.9736C52.6348 60.0498 52.3784 60.0879 52.1147 60.0879C51.2241 60.0879 50.77 59.6382 50.7524 58.7388V56.1768H50.0581V55.2451H50.7524V54.0762H52.0225Z" fill="#4F4F4F"/>
</svg>
